HIERARCHY
ROOT SpineBase
{
  OFFSET 0.000000 0.000000 0.000000
  CHANNELS 6 Xposition Yposition Zposition Zrotation Xrotation Yrotation
  JOINT SpineMid
  {
    OFFSET -0.000000 25.670018 0.000000
    CHANNELS 3 Zrotation Xrotation Yrotation
    JOINT SpineShoulder
    {
      OFFSET 0.211345 18.595172 -0.592588
      CHANNELS 3 Zrotation Xrotation Yrotation
      JOINT Neck
      {
        OFFSET 0.069897 6.083834 -0.470721
        CHANNELS 3 Zrotation Xrotation Yrotation
        JOINT Head
        {
          OFFSET -3.665821 11.969832 2.645590
          CHANNELS 3 Zrotation Xrotation Yrotation
          End Site
          {
            OFFSET 0 0 0
          }
        }
      }
      JOINT ShoulderLeft
      {
        OFFSET -7.061740 -5.214540 19.334473
        CHANNELS 3 Zrotation Xrotation Yrotation
        JOINT ElbowLeft
        {
          OFFSET -6.862409 -21.729976 2.552803
          CHANNELS 3 Zrotation Xrotation Yrotation
          JOINT WristLeft
          {
            OFFSET 12.753580 -3.537004 -19.849206
            CHANNELS 3 Zrotation Xrotation Yrotation
            JOINT HandLeft
            {
              OFFSET -1.392403 -5.318842 -3.326512
              CHANNELS 3 Zrotation Xrotation Yrotation
              JOINT HandTipLeft
              {
                OFFSET 3.488182 -2.437465 -2.523477
                CHANNELS 3 Zrotation Xrotation Yrotation
                End Site
                {
                  OFFSET 0 0 0
                }
              }
              JOINT ThumbLeft
              {
                OFFSET -2.353731 2.984018 -0.993587
                CHANNELS 3 Zrotation Xrotation Yrotation
                End Site
                {
                  OFFSET 0 0 0
                }
              }
            }
          }
        }
      }
      JOINT ShoulderRight
      {
        OFFSET 5.295854 -3.590874 -12.817111
        CHANNELS 3 Zrotation Xrotation Yrotation
        JOINT ElbowRight
        {
          OFFSET -3.896324 -19.093071 -8.088421
          CHANNELS 3 Zrotation Xrotation Yrotation
          JOINT WristRight
          {
            OFFSET 2.702031 -22.649670 2.432096
            CHANNELS 3 Zrotation Xrotation Yrotation
            JOINT HandRight
            {
              OFFSET -1.663037 -6.660834 3.320782
              CHANNELS 3 Zrotation Xrotation Yrotation
              JOINT HandTipRight
              {
                OFFSET 1.191984 -7.349335 -0.444688
                CHANNELS 3 Zrotation Xrotation Yrotation
                End Site
                {
                  OFFSET 0 0 0
                }
              }
              JOINT ThumbRight
              {
                OFFSET 4.122894 2.867809 -3.848935
                CHANNELS 3 Zrotation Xrotation Yrotation
                End Site
                {
                  OFFSET 0 0 0
                }
              }
            }
          }
        }
      }
    }
  }
  JOINT HipLeft
  {
    OFFSET -2.129107 0.641578 -4.478183
    CHANNELS 3 Zrotation Xrotation Yrotation
    JOINT KneeLeft
    {
      OFFSET -6.150865 -35.455967 -7.899178
      CHANNELS 3 Zrotation Xrotation Yrotation
      JOINT AnkleLeft
      {
        OFFSET 12.678395 -34.276728 11.292612
        CHANNELS 3 Zrotation Xrotation Yrotation
        JOINT FootLeft
        {
          OFFSET -10.325033 -2.644726 -8.973283
          CHANNELS 3 Zrotation Xrotation Yrotation
          End Site
          {
            OFFSET 0 0 0
          }
        }
      }
    }
  }
  JOINT HipRight
  {
    OFFSET 2.156864 0.285856 -1.691917
    CHANNELS 3 Zrotation Xrotation Yrotation
    JOINT KneeRight
    {
      OFFSET 3.569910 -40.656362 0.873655
      CHANNELS 3 Zrotation Xrotation Yrotation
      JOINT AnkleRight
      {
        OFFSET 4.842563 -23.277970 7.912096
        CHANNELS 3 Zrotation Xrotation Yrotation
        JOINT FootRight
        {
          OFFSET -8.552083 -3.454078 -5.934881
          CHANNELS 3 Zrotation Xrotation Yrotation
          End Site
          {
            OFFSET 0 0 0
          }
        }
      }
    }
  }
}
MOTION
Frames: 10
Frame Time: 0.033333
-9.318914 98.831328 341.282382 0.000000 0.000000 -33.027477 -0.000000 0.000000 33.027477 -0.000000 0.000000 0.000000 -0.000000 0.000000 0.000000 0.000000 0.000000 0.000000 -0.000000 0.000000 0.000000 -0.000000 0.000000 0.000000 -0.000000 0.000000 0.000000 -0.000000 0.000000 0.000000 0.000000 0.000000 0.000000 0.000000 0.000000 0.000000 -0.000000 0.000000 0.000000 -0.000000 0.000000 0.000000 -0.000000 0.000000 0.000000 -0.000000 0.000000 0.000000 0.000000 0.000000 0.000000 0.000000 0.000000 0.000000 -0.000000 0.000000 33.027477 -0.000000 0.000000 0.000000 -0.000000 0.000000 0.000000 0.000000 0.000000 0.000000 -0.000000 0.000000 33.027477 -0.000000 0.000000 0.000000 -0.000000 0.000000 0.000000 0.000000 0.000000 0.000000
-9.402325 98.880381 341.185543 0.038534 0.091242 -35.950662 0.022373 -0.096485 35.950650 -0.000000 0.000000 0.000000 2.092181 1.455200 -0.042994 0.000000 0.000000 0.000000 -0.000000 0.000000 0.000000 0.643838 0.490030 -1.770483 -0.651754 -5.432437 3.199806 -0.037846 3.674173 -2.916297 0.000000 0.000000 0.000000 0.000000 0.000000 0.000000 0.915031 -0.250317 -0.335419 -0.916489 0.244924 0.339377 -2.065089 1.620329 -1.408565 2.088816 0.606965 1.816390 0.000000 0.000000 0.000000 0.000000 0.000000 0.000000 0.874790 0.889524 35.609930 -1.968561 -0.759653 -0.074004 5.129276 -4.046281 4.460454 0.000000 0.000000 0.000000 0.022373 -0.096485 35.950650 -0.242368 0.937090 0.114921 0.240520 -0.937566 -0.110971 0.000000 0.000000 0.000000
-9.484534 98.900124 341.112968 0.069013 0.151652 -36.722988 0.035364 -0.162821 36.722946 -0.000000 0.000000 0.000000 3.953459 2.683368 -0.142587 0.000000 0.000000 0.000000 -0.000000 0.000000 0.000000 1.069424 0.800247 -2.910862 -0.839071 -9.226797 5.366870 -0.048950 6.238118 -4.976899 0.000000 0.000000 0.000000 0.000000 0.000000 0.000000 1.636178 -0.398175 -0.608906 -1.640353 0.380604 0.620041 -3.694649 3.084296 -2.526529 3.425690 0.686915 3.315197 0.000000 0.000000 0.000000 0.000000 0.000000 0.000000 1.298869 1.708399 36.100716 -3.457976 -1.638361 -0.198226 11.770927 -8.666475 10.323236 0.000000 0.000000 0.000000 0.035364 -0.162821 36.722946 -0.493761 1.750003 0.205046 1.608013 -2.398424 -0.495156 0.000000 0.000000 0.000000
-9.565540 98.890558 341.064657 0.091252 0.180711 -35.198052 0.029594 -0.200269 35.197960 0.831711 0.076932 0.062919 4.745929 3.594021 -0.336132 0.000000 0.000000 0.000000 -0.831796 -0.076011 -0.064029 1.270273 0.947009 -3.427550 -0.877698 -11.005178 6.386559 -0.050347 7.408683 -5.973919 0.000000 0.000000 0.000000 0.000000 0.000000 0.000000 1.342732 -0.523349 -0.887908 -2.853063 1.076917 0.861151 -4.228576 3.692991 -3.435345 4.056316 0.167600 4.447947 0.000000 0.000000 0.000000 0.000000 0.000000 0.000000 1.361049 2.382404 34.364368 -4.457840 -2.627606 -0.375522 19.790809 -13.141065 17.511308 0.000000 0.000000 0.000000 0.029594 -0.200269 35.197960 -0.744986 2.440975 0.272873 2.491304 -3.437685 -0.760185 0.000000 0.000000 0.000000
-9.645344 98.851681 341.040609 0.105120 0.178099 -30.924626 0.001350 -0.206803 30.924466 1.013343 0.073842 0.076917 5.939535 4.347503 -0.506592 0.000000 0.000000 0.000000 -1.013442 -0.072470 -0.078211 1.244206 0.938354 -3.325219 -0.935090 -10.606335 6.186238 -0.048422 7.063293 -5.808856 0.000000 0.000000 0.000000 0.000000 0.000000 0.000000 1.525713 -0.466889 -1.068425 -3.792836 1.074562 0.982262 -4.435198 4.689419 -3.985699 4.013500 -0.998873 5.168684 0.000000 0.000000 0.000000 0.000000 0.000000 0.000000 1.154322 2.924393 29.955008 -4.964509 -3.718989 -0.603070 28.132736 -16.512839 25.078672 0.000000 0.000000 0.000000 0.844786 -0.582863 30.875313 -1.524179 3.772388 0.392866 3.427261 -4.382265 -1.049879 0.000000 0.000000 0.000000
-9.723945 98.783495 341.040825 0.110538 0.143706 -23.096938 0.740064 0.265610 23.123542 0.251895 -0.041384 0.061342 6.929567 4.875149 -0.682736 0.000000 0.000000 0.000000 -1.147475 -0.054671 -0.088692 0.992057 0.773481 -2.604648 -0.971727 -8.057529 4.785149 -0.039283 5.224887 -4.499405 0.000000 0.000000 0.000000 0.000000 0.000000 0.000000 1.587267 -0.294363 -1.197538 -4.734400 0.896679 1.017194 -4.048944 5.540857 -4.251727 3.306337 -2.835571 5.430549 0.000000 0.000000 0.000000 0.000000 0.000000 0.000000 0.800849 3.437705 22.066735 -4.980288 -4.904271 -0.872833 34.996959 -18.316785 31.356859 0.000000 0.000000 0.000000 0.945839 -0.902738 23.026690 -1.856974 4.546966 0.460939 4.418750 -5.246738 -1.374843 0.000000 0.000000 0.000000
-9.725050 98.942288 341.078645 0.180033 0.082890 -11.906730 0.837061 0.143456 11.938429 0.301469 -0.057349 0.071599 8.158569 5.386728 -0.966591 0.000000 0.000000 0.000000 -1.330168 0.009019 -0.102909 0.520296 0.455669 -1.231199 -0.538170 -3.946845 2.219522 -0.213446 2.422112 -2.143260 0.000000 0.000000 0.000000 0.000000 0.000000 0.000000 1.340423 0.207398 -1.285508 -6.264951 0.297501 0.861153 -1.664730 6.072086 -3.771444 1.487893 -6.064300 4.556896 0.000000 0.000000 0.000000 0.000000 0.000000 0.000000 0.644055 3.930423 10.864818 -4.895277 -6.021589 -1.235080 46.169754 -19.779466 42.209112 0.000000 0.000000 0.000000 0.713806 -1.267875 11.815727 -2.096701 5.326515 0.538738 5.690289 -6.244390 -2.000328 0.000000 0.000000 0.000000
-9.805087 98.718242 341.135491 0.163281 -0.025663 6.238867 0.867469 -0.106114 -6.204732 0.329895 -0.046475 0.073714 9.026411 5.489327 -1.209899 0.000000 0.000000 0.000000 -1.366910 0.085704 -0.105720 -0.195777 -0.083299 0.806420 0.291241 2.117192 -1.376811 -0.045387 -2.038334 0.567494 0.000000 0.000000 0.000000 0.000000 0.000000 0.000000 0.962777 0.945810 -1.290559 -7.008330 -0.483009 0.644184 0.353763 6.630730 -3.307360 -1.720822 -10.231244 3.244581 0.000000 0.000000 0.000000 0.000000 0.000000 0.000000 0.816382 4.895915 -7.226347 -4.069532 -7.370321 -1.587387 50.303545 -19.602678 46.232946 0.000000 0.000000 0.000000 0.334127 -1.789776 -6.371608 -2.448191 6.130377 0.596999 7.289011 -7.191809 -2.763472 0.000000 0.000000 0.000000
-9.904903 98.227703 341.179709 0.090947 -0.140865 26.216071 0.739128 -0.346196 -26.184416 0.279334 -0.037685 0.063419 9.575832 5.258803 -1.370562 0.000000 0.000000 0.000000 -1.186065 0.164402 -0.091958 -0.947075 -0.609418 3.309021 1.377445 8.548282 -5.318705 0.360798 -6.674285 3.800569 0.000000 0.000000 0.000000 0.000000 0.000000 0.000000 0.739717 1.309735 -1.165282 -6.686079 -1.219250 0.417635 0.457105 8.188544 -3.462782 -3.770421 -14.432753 2.505746 0.000000 0.000000 0.000000 0.000000 0.000000 0.000000 1.999079 5.646830 -27.178512 -3.188102 -8.357989 -1.810701 46.557651 -19.074430 42.871530 0.000000 0.000000 0.000000 -0.405978 -2.377179 -26.421887 -2.782267 6.997161 0.664524 8.779472 -8.034777 -3.235256 0.000000 0.000000 0.000000
-10.026922 97.544933 341.233188 0.025124 -0.251616 40.919292 0.628311 -0.469769 -40.890437 0.293883 0.020223 0.058582 9.530391 4.934174 -1.403442 0.000000 0.000000 0.000000 -1.101200 0.176343 -0.085537 -1.785865 -1.374575 5.750913 3.571948 14.903740 -9.534554 1.052616 -10.838294 7.131758 0.000000 0.000000 0.000000 0.000000 0.000000 0.000000 0.571495 1.606288 -1.109212 -7.183190 -1.863724 0.179254 1.963220 8.210728 -2.914510 -6.555883 -16.255521 1.200043 0.000000 0.000000 0.000000 0.000000 0.000000 0.000000 3.150892 7.959429 -41.847988 -0.933793 -10.356625 -1.917327 35.615124 -17.050757 32.513478 0.000000 0.000000 0.000000 -1.220638 -2.769494 -41.206099 -3.009026 7.656049 0.731357 9.599225 -8.573420 -2.976988 0.000000 0.000000 0.000000
